<svg xmlns="http://www.w3.org/2000/svg" viewBox="0 0 900 1400"><title>Above the Clouds</title><defs><linearGradient id="wash" x2=".7" y2="1"><stop stop-color="#ffffff"/><stop offset="1" stop-color="#475569" stop-opacity=".30"/></linearGradient></defs><rect width="900" height="1400" fill="url(#wash)"/><circle cx="465" cy="340" r="110" fill="#475569" opacity=".32"/><ellipse cx="185" cy="650" rx="290" ry="100" fill="#475569" opacity=".25"/><ellipse cx="418" cy="742" rx="290" ry="100" fill="#475569" opacity=".25"/><ellipse cx="651" cy="834" rx="290" ry="100" fill="#475569" opacity=".25"/><ellipse cx="884" cy="926" rx="290" ry="100" fill="#475569" opacity=".25"/><ellipse cx="117" cy="1018" rx="290" ry="100" fill="#475569" opacity=".25"/><ellipse cx="350" cy="1110" rx="290" ry="100" fill="#475569" opacity=".25"/><ellipse cx="583" cy="1202" rx="290" ry="100" fill="#475569" opacity=".25"/><path d="M-40,1200 Q285,250 950,480" fill="none" stroke="#475569" opacity=".78" stroke-width="3" stroke-dasharray="12 15"/><g transform="translate(420,740) rotate(15)" fill="#475569"><path d="M0,-180 Q18,-175 18,-125 L24,-25 155,70 155,95 22,45 16,130 60,165 60,180 0,158 -60,180 -60,165 -16,130 -22,45 -155,95 -155,70 -24,-25 -18,-125 Q-18,-175 0,-180Z"/></g></svg>