<svg xmlns="http://www.w3.org/2000/svg" viewBox="0 0 900 1400"><title>Contour Map</title><defs><linearGradient id="wash" x2=".7" y2="1"><stop stop-color="#ffffff"/><stop offset="1" stop-color="#0891b2" stop-opacity=".30"/></linearGradient></defs><rect width="900" height="1400" fill="url(#wash)"/><circle cx="613" cy="260" r="78" fill="#0891b2" opacity=".32"/><path d="M-150,1400 Q813,600 0,0" fill="none" stroke="#0891b2" stroke-width="3" opacity=".64"/><path d="M-70,1400 Q813,620 95,0" fill="none" stroke="#0891b2" stroke-width="3" opacity=".64"/><path d="M10,1400 Q813,640 190,0" fill="none" stroke="#0891b2" stroke-width="3" opacity=".64"/><path d="M90,1400 Q813,660 285,0" fill="none" stroke="#0891b2" stroke-width="3" opacity=".64"/><path d="M170,1400 Q813,680 380,0" fill="none" stroke="#0891b2" stroke-width="3" opacity=".64"/><path d="M250,1400 Q813,700 475,0" fill="none" stroke="#0891b2" stroke-width="3" opacity=".64"/><path d="M330,1400 Q813,720 570,0" fill="none" stroke="#0891b2" stroke-width="3" opacity=".64"/><path d="M410,1400 Q813,740 665,0" fill="none" stroke="#0891b2" stroke-width="3" opacity=".64"/><path d="M490,1400 Q813,760 760,0" fill="none" stroke="#0891b2" stroke-width="3" opacity=".64"/><path d="M570,1400 Q813,780 855,0" fill="none" stroke="#0891b2" stroke-width="3" opacity=".64"/><path d="M650,1400 Q813,800 950,0" fill="none" stroke="#0891b2" stroke-width="3" opacity=".64"/><path d="M730,1400 Q813,820 1045,0" fill="none" stroke="#0891b2" stroke-width="3" opacity=".64"/><path d="M810,1400 Q813,840 1140,0" fill="none" stroke="#0891b2" stroke-width="3" opacity=".64"/><path d="M890,1400 Q813,860 1235,0" fill="none" stroke="#0891b2" stroke-width="3" opacity=".64"/><path d="M970,1400 Q813,880 1330,0" fill="none" stroke="#0891b2" stroke-width="3" opacity=".64"/><path d="M1050,1400 Q813,900 1425,0" fill="none" stroke="#0891b2" stroke-width="3" opacity=".64"/></svg>