<svg xmlns="http://www.w3.org/2000/svg" viewBox="0 0 900 1400"><title>Route Geometry</title><defs><linearGradient id="wash" x2=".7" y2="1"><stop stop-color="#ffffff"/><stop offset="1" stop-color="#475569" stop-opacity=".30"/></linearGradient></defs><rect width="900" height="1400" fill="url(#wash)"/><circle cx="465" cy="340" r="110" fill="#475569" opacity=".32"/><path d="M-150,1400 Q665,600 0,0" fill="none" stroke="#475569" stroke-width="3" opacity=".64"/><path d="M-70,1400 Q665,620 95,0" fill="none" stroke="#475569" stroke-width="3" opacity=".64"/><path d="M10,1400 Q665,640 190,0" fill="none" stroke="#475569" stroke-width="3" opacity=".64"/><path d="M90,1400 Q665,660 285,0" fill="none" stroke="#475569" stroke-width="3" opacity=".64"/><path d="M170,1400 Q665,680 380,0" fill="none" stroke="#475569" stroke-width="3" opacity=".64"/><path d="M250,1400 Q665,700 475,0" fill="none" stroke="#475569" stroke-width="3" opacity=".64"/><path d="M330,1400 Q665,720 570,0" fill="none" stroke="#475569" stroke-width="3" opacity=".64"/><path d="M410,1400 Q665,740 665,0" fill="none" stroke="#475569" stroke-width="3" opacity=".64"/><path d="M490,1400 Q665,760 760,0" fill="none" stroke="#475569" stroke-width="3" opacity=".64"/><path d="M570,1400 Q665,780 855,0" fill="none" stroke="#475569" stroke-width="3" opacity=".64"/><path d="M650,1400 Q665,800 950,0" fill="none" stroke="#475569" stroke-width="3" opacity=".64"/><path d="M730,1400 Q665,820 1045,0" fill="none" stroke="#475569" stroke-width="3" opacity=".64"/><path d="M810,1400 Q665,840 1140,0" fill="none" stroke="#475569" stroke-width="3" opacity=".64"/><path d="M890,1400 Q665,860 1235,0" fill="none" stroke="#475569" stroke-width="3" opacity=".64"/><path d="M970,1400 Q665,880 1330,0" fill="none" stroke="#475569" stroke-width="3" opacity=".64"/><path d="M1050,1400 Q665,900 1425,0" fill="none" stroke="#475569" stroke-width="3" opacity=".64"/></svg>