<svg xmlns="http://www.w3.org/2000/svg" viewBox="0 0 900 1400"><title>Soft Arches</title><defs><linearGradient id="wash" x2=".7" y2="1"><stop stop-color="#ffffff"/><stop offset="1" stop-color="#b7791f" stop-opacity=".30"/></linearGradient></defs><rect width="900" height="1400" fill="url(#wash)"/><circle cx="502" cy="320" r="102" fill="#b7791f" opacity=".32"/><ellipse cx="572" cy="1148" rx="100" ry="150" fill="none" stroke="#b7791f" stroke-width="3" opacity=".68" transform="rotate(48 450 700)"/><ellipse cx="572" cy="1148" rx="142" ry="200" fill="none" stroke="#b7791f" stroke-width="3" opacity=".68" transform="rotate(48 450 700)"/><ellipse cx="572" cy="1148" rx="184" ry="250" fill="none" stroke="#b7791f" stroke-width="3" opacity=".68" transform="rotate(48 450 700)"/><ellipse cx="572" cy="1148" rx="226" ry="300" fill="none" stroke="#b7791f" stroke-width="3" opacity=".68" transform="rotate(48 450 700)"/><ellipse cx="572" cy="1148" rx="268" ry="350" fill="none" stroke="#b7791f" stroke-width="3" opacity=".68" transform="rotate(48 450 700)"/><ellipse cx="572" cy="1148" rx="310" ry="400" fill="none" stroke="#b7791f" stroke-width="3" opacity=".68" transform="rotate(48 450 700)"/><ellipse cx="572" cy="1148" rx="352" ry="450" fill="none" stroke="#b7791f" stroke-width="3" opacity=".68" transform="rotate(48 450 700)"/><ellipse cx="572" cy="1148" rx="394" ry="500" fill="none" stroke="#b7791f" stroke-width="3" opacity=".68" transform="rotate(48 450 700)"/><ellipse cx="572" cy="1148" rx="436" ry="550" fill="none" stroke="#b7791f" stroke-width="3" opacity=".68" transform="rotate(48 450 700)"/><ellipse cx="572" cy="1148" rx="478" ry="600" fill="none" stroke="#b7791f" stroke-width="3" opacity=".68" transform="rotate(48 450 700)"/><ellipse cx="572" cy="1148" rx="520" ry="650" fill="none" stroke="#b7791f" stroke-width="3" opacity=".68" transform="rotate(48 450 700)"/><ellipse cx="572" cy="1148" rx="562" ry="700" fill="none" stroke="#b7791f" stroke-width="3" opacity=".68" transform="rotate(48 450 700)"/><ellipse cx="572" cy="1148" rx="604" ry="750" fill="none" stroke="#b7791f" stroke-width="3" opacity=".68" transform="rotate(48 450 700)"/><ellipse cx="572" cy="1148" rx="646" ry="800" fill="none" stroke="#b7791f" stroke-width="3" opacity=".68" transform="rotate(48 450 700)"/><ellipse cx="572" cy="1148" rx="688" ry="850" fill="none" stroke="#b7791f" stroke-width="3" opacity=".68" transform="rotate(48 450 700)"/><ellipse cx="572" cy="1148" rx="730" ry="900" fill="none" stroke="#b7791f" stroke-width="3" opacity=".68" transform="rotate(48 450 700)"/></svg>